<svg viewBox="168.0621761658031 595.584 185.50259067357516 52.272000000000006" version="1.1" xmlns="http://www.w3.org/2000/svg" id="Layer_1" style="max-height: 500px" width="185.50259067357516" height="52.272000000000006">
  
  <defs>
    <style>
      .st0, .st1, .st2, .st3, .st4 {
        font-family: QuestaSans-Regular, 'Questa Sans';
      }

      .st0, .st5 {
        fill: #264f59;
      }

      .st6, .st7 {
        fill: #6f6759;
      }

      .st8, .st9 {
        fill: #9e9c98;
      }

      .st10, .st11, .st12 {
        fill: #fff;
      }

      .st9, .st13, .st7 {
        font-family: QuestaSans-Bold, 'Questa Sans';
        font-weight: 700;
      }

      .st14, .st11, .st12, .st15 {
        font-size: 10px;
      }

      .st14, .st11, .st15 {
        letter-spacing: .18em;
      }

      .st16, .st2, .st17, .st3 {
        fill: #112d32;
      }

      .st17, .st18, .st19 {
        font-size: 14px;
        letter-spacing: .18em;
      }

      .st3 {
        font-size: 8px;
        letter-spacing: .18em;
      }

      .st20 {
        opacity: .36;
      }

      .st21 {
        fill: #292826;
      }

      .st19, .st22, .st15 {
        fill: #010101;
      }

      .st23 {
        stroke: #010101;
        stroke-width: .5px;
      }

      .st23, .st24, .st25 {
        stroke-miterlimit: 10;
      }

      .st23, .st4 {
        fill: #231f20;
      }

      .st12 {
        font-family: ArialMT, Arial;
        letter-spacing: .1em;
      }

      .st26 {
        fill: #89bdbd;
      }

      .st24 {
        stroke: #fff;
      }

      .st24, .st25 {
        fill: none;
        stroke-width: .3px;
      }

      .st4 {
        font-size: 9px;
      }

      .st25 {
        stroke: #9e9c98;
      }
    </style>
  </defs>
  <rect height="175.95" width="126.35" y="374.24" x="411.39" class="st26"/>
  <text transform="translate(78.85 582.27)" class="st4"><tspan y="0" x="0">COLOR PALLETE</tspan></text>
  <line y2="584.5" x2="152" y1="584.5" x1="70" class="st23"/>
  <text transform="translate(97.79 714.32)" class="st4"><tspan y="0" x="0">FONT</tspan></text>
  <line y2="716.55" x2="149.32" y1="716.55" x1="67.32" class="st23"/>
  <text transform="translate(328.76 582.27)" class="st4"><tspan y="0" x="0">LOGO + TEXT</tspan></text>
  <line y2="584.5" x2="539" y1="584.5" x1="172" class="st23"/>
  <g>
    <rect height="17.18" width="57.41" y="648.83" x="80.28" class="st21"/>
    <text transform="translate(85.79 660.65)" class="st12"><tspan y="0" x="0">#282726</tspan></text>
    <rect height="17.18" width="57.41" y="667.83" x="80.41" class="st6"/>
    <text transform="translate(85.93 679.65)" class="st12"><tspan y="0" x="0">#6E6658</tspan></text>
    <rect height="17.18" width="57.41" y="686.83" x="80.41" class="st8"/>
    <text transform="translate(85.93 698.65)" class="st12"><tspan y="0" x="0">#9E9C98</tspan></text>
    <rect height="17.18" width="57.41" y="629.48" x="80.35" class="st16"/>
    <text transform="translate(85.87 641.29)" class="st12"><tspan y="0" x="0">#112D32</tspan></text>
    <rect height="17.18" width="57.41" y="610.48" x="80.35" class="st5"/>
    <text transform="translate(85.87 622.29)" class="st12"><tspan y="0" x="0">#254E58</tspan></text>
    <rect height="17.18" width="57.41" y="591.48" x="80.35" class="st26"/>
    <text transform="translate(85.87 603.29)" class="st12"><tspan y="0" x="0">#88BDBC</tspan></text>
  </g>
  <text transform="translate(209.93 711.15)" class="st17"><tspan y="0" x="0" class="st1">ULTIVATE</tspan><tspan y="0" x="83.02" class="st13">LAND</tspan></text>
  <text transform="translate(75.23 726.65)" class="st3"><tspan y="0" x="0">QUESTA SANS</tspan></text>
  <text transform="translate(209.93 622.03)" class="st18"><tspan y="0" x="0" class="st2">ULTIVATE</tspan><tspan y="0" x="83.02" class="st7">LAND</tspan></text>
  <g>
    <g id="LWPOLYLINE">
      <polygon points="390.56 616.87 378.54 637.71 381.21 637.71 391.9 619.19 390.56 616.87" class="st6"/>
    </g>
    <g data-name="LWPOLYLINE" id="LWPOLYLINE1">
      <path d="M402.59,623.82c-3.28,5.68-10.08,8.29-16.31,6.27l1.19-2.06c5.09,1.41,10.48-.79,13.12-5.37l2,1.16Z" class="st16"/>
    </g>
    <g data-name="LWPOLYLINE" id="LWPOLYLINE2">
      <path d="M400.59,611.08l2-1.16c-3.84-6.64-12.33-8.92-18.97-5.08-6.64,3.84-8.92,12.33-5.08,18.97,1.12,1.94,2.7,3.58,4.59,4.78l1.16-2.01c-1.54-1-2.82-2.35-3.74-3.94-3.2-5.54-1.3-12.62,4.24-15.81,5.54-3.2,12.61-1.3,15.81,4.24l2-1.16-2,1.16Z" class="st16"/>
    </g>
    <g data-name="LWPOLYLINE" id="LWPOLYLINE3">
      <path d="M397.8,629.4c-.67.39-1.37.72-2.1,1l2.88,4.99h-15.37l-1.34,2.32h20.72l-4.79-8.31Z" class="st8"/>
    </g>
  </g>
  <g>
    <g data-name="LWPOLYLINE" id="LWPOLYLINE4">
      <polygon points="196.09 616.88 184.07 637.71 186.74 637.71 197.43 619.19 196.09 616.88" class="st6"/>
    </g>
    <g data-name="LWPOLYLINE" id="LWPOLYLINE5">
      <path d="M208.12,623.82c-3.28,5.68-10.08,8.29-16.31,6.27l1.19-2.06c5.09,1.41,10.48-.79,13.12-5.37l2,1.16Z" class="st16"/>
    </g>
    <g data-name="LWPOLYLINE" id="LWPOLYLINE6">
      <path d="M206.12,611.09l2-1.16c-3.84-6.64-12.33-8.92-18.97-5.08-6.64,3.84-8.92,12.33-5.08,18.97,1.12,1.94,2.7,3.58,4.59,4.78l1.16-2.01c-1.54-1-2.82-2.35-3.74-3.94-3.2-5.54-1.3-12.62,4.24-15.81,5.54-3.2,12.61-1.3,15.81,4.24l2-1.16-2,1.16Z" class="st16"/>
    </g>
    <g data-name="LWPOLYLINE" id="LWPOLYLINE7">
      <path d="M203.33,629.41c-.67.39-1.37.72-2.1,1l2.88,4.99h-15.37l-1.34,2.32h20.72l-4.79-8.31Z" class="st8"/>
    </g>
  </g>
  <g>
    <g data-name="LWPOLYLINE" id="LWPOLYLINE8">
      <polygon points="195.52 705.87 183.5 726.71 186.17 726.71 196.86 708.19 195.52 705.87" class="st6"/>
    </g>
    <g data-name="LWPOLYLINE" id="LWPOLYLINE9">
      <path d="M207.55,712.82c-3.28,5.68-10.08,8.29-16.31,6.27l1.19-2.06c5.09,1.41,10.48-.79,13.12-5.37l2,1.16Z" class="st16"/>
    </g>
    <g data-name="LWPOLYLINE" id="LWPOLYLINE10">
      <path d="M205.55,700.09l2-1.16c-3.84-6.64-12.33-8.92-18.97-5.08-6.64,3.84-8.92,12.33-5.08,18.97,1.12,1.94,2.7,3.58,4.59,4.78l1.16-2.01c-1.54-1-2.82-2.35-3.74-3.94-3.2-5.54-1.3-12.62,4.24-15.81,5.54-3.2,12.61-1.3,15.81,4.24l2-1.16-2,1.16Z" class="st16"/>
    </g>
    <g data-name="LWPOLYLINE" id="LWPOLYLINE11">
      <path d="M202.76,718.4c-.67.39-1.37.72-2.1,1l2.88,4.99h-15.37l-1.34,2.32h20.72l-4.79-8.31Z" class="st8"/>
    </g>
  </g>
  <text transform="translate(403.93 622.03)" class="st18"><tspan y="0" x="0" class="st2">ULTIVATE</tspan><tspan y="0" x="83.02" class="st9">LAND</tspan></text>
  <g>
    <g data-name="LWPOLYLINE" id="LWPOLYLINE12">
      <polygon points="390.56 705.87 378.54 726.71 381.21 726.71 391.9 708.19 390.56 705.87" class="st22"/>
    </g>
    <g data-name="LWPOLYLINE" id="LWPOLYLINE13">
      <path d="M402.59,712.82c-3.28,5.68-10.08,8.29-16.31,6.27l1.19-2.06c5.09,1.41,10.48-.79,13.12-5.37l2,1.16Z" class="st22"/>
    </g>
    <g data-name="LWPOLYLINE" id="LWPOLYLINE14">
      <path d="M400.59,700.09l2-1.16c-3.84-6.64-12.33-8.92-18.97-5.08-6.64,3.84-8.92,12.33-5.08,18.97,1.12,1.94,2.7,3.58,4.59,4.78l1.16-2.01c-1.54-1-2.82-2.34-3.74-3.93-3.2-5.54-1.3-12.61,4.24-15.81s12.61-1.3,15.81,4.24l2-1.16-2,1.16Z" class="st22"/>
    </g>
    <g data-name="LWPOLYLINE" id="LWPOLYLINE15">
      <path d="M397.8,718.4c-.67.39-1.37.72-2.1,1l2.88,4.99h-15.37l-1.34,2.31h20.72l-4.79-8.3Z" class="st22"/>
    </g>
  </g>
  <text transform="translate(403.93 711.03)" class="st19"><tspan y="0" x="0" class="st1">ULTIVATE</tspan><tspan y="0" x="83.02" class="st13">LAND</tspan></text>
  <text transform="translate(257.67 542.75)" class="st15"><tspan y="0" x="0" class="st1">CULTIVATE</tspan><tspan y="0" x="67.56" class="st13">LAND</tspan></text>
  <g>
    <g class="st20" id="CIRCLE">
      <path d="M252.92,452.37c0-29.82,24.18-54,54-54s54,24.18,54,54-24.18,54-54,54-54-24.18-54-54h0Z" class="st25"/>
    </g>
    <g class="st20" data-name="LWPOLYLINE" id="LWPOLYLINE16">
      <line y2="545.9" x2="360.92" y1="382.22" x1="266.42" class="st25"/>
    </g>
    <g class="st20" data-name="LWPOLYLINE" id="LWPOLYLINE17">
      <line y2="545.9" x2="252.92" y1="382.22" x1="347.42" class="st25"/>
    </g>
    <g data-name="LWPOLYLINE" id="LWPOLYLINE18">
      <polygon points="306.92 452.37 260.15 533.37 270.55 533.37 312.12 461.37 306.92 452.37" class="st22"/>
    </g>
    <g data-name="LWPOLYLINE" id="LWPOLYLINE19">
      <path d="M353.68,479.37c-12.74,22.07-39.19,32.23-63.43,24.36l4.62-8.01c19.77,5.49,40.75-3.09,51.01-20.86l7.79,4.5Z" class="st22"/>
    </g>
    <g data-name="LWPOLYLINE" id="LWPOLYLINE20">
      <path d="M345.89,429.87l7.79-4.5c-14.91-25.83-47.94-34.68-73.77-19.77-25.83,14.91-34.68,47.94-19.77,73.77,4.36,7.55,10.48,13.93,17.84,18.6l4.5-7.8c-5.99-3.87-10.98-9.12-14.55-15.3-12.43-21.52-5.05-49.04,16.47-61.47,21.52-12.43,49.04-5.05,61.47,16.47l7.79-4.5-7.79,4.5Z" class="st22"/>
    </g>
    <g data-name="LWPOLYLINE" id="LWPOLYLINE21">
      <path d="M335.04,501.09c-2.61,1.51-5.34,2.8-8.16,3.87l11.21,19.41h-59.76l-5.2,9h80.54l-18.64-32.29Z" class="st22"/>
    </g>
  </g>
  <text transform="translate(426.17 542.36)" class="st11"><tspan y="0" x="0" class="st1">CULTIVATE</tspan><tspan y="0" x="67.56" class="st13">LAND</tspan></text>
  <g>
    <g class="st20" data-name="CIRCLE" id="CIRCLE1">
      <path d="M421.42,451.98c0-29.82,24.18-54,54-54s54,24.18,54,54-24.18,54-54,54-54-24.18-54-54h0Z" class="st24"/>
    </g>
    <g class="st20" data-name="LWPOLYLINE" id="LWPOLYLINE22">
      <line y2="545.51" x2="529.42" y1="381.83" x1="434.92" class="st24"/>
    </g>
    <g class="st20" data-name="LWPOLYLINE" id="LWPOLYLINE23">
      <line y2="545.51" x2="421.42" y1="381.83" x1="515.92" class="st24"/>
    </g>
    <g data-name="LWPOLYLINE" id="LWPOLYLINE24">
      <polygon points="475.42 451.98 428.65 532.98 439.04 532.98 480.61 460.98 475.42 451.98" class="st10"/>
    </g>
    <g data-name="LWPOLYLINE" id="LWPOLYLINE25">
      <path d="M522.18,478.98c-12.74,22.07-39.19,32.23-63.43,24.36l4.62-8.01c19.77,5.49,40.75-3.09,51.01-20.86l7.79,4.5Z" class="st10"/>
    </g>
    <g data-name="LWPOLYLINE" id="LWPOLYLINE26">
      <path d="M514.39,429.48l7.79-4.5c-14.91-25.83-47.94-34.68-73.77-19.77-25.83,14.91-34.68,47.94-19.77,73.77,4.36,7.55,10.48,13.93,17.84,18.6l4.5-7.8c-5.99-3.87-10.98-9.12-14.55-15.3-12.43-21.52-5.05-49.04,16.47-61.47s49.04-5.05,61.47,16.47l7.79-4.5-7.79,4.5Z" class="st10"/>
    </g>
    <g data-name="LWPOLYLINE" id="LWPOLYLINE27">
      <path d="M503.54,500.69c-2.61,1.51-5.34,2.8-8.16,3.87l11.21,19.41h-59.76l-5.2,9h80.54l-18.64-32.29Z" class="st10"/>
    </g>
  </g>
  <g>
    <g class="st20" data-name="LWPOLYLINE" id="LWPOLYLINE28">
      <line y2="532.98" x2="192.82" y1="532.98" x1="49.95" class="st25"/>
    </g>
    <text transform="translate(72.17 546.16)" class="st14"><tspan y="0" x="0" class="st0">CULTIVATE</tspan><tspan y="0" x="67.56" class="st9">LAND</tspan></text>
    <g>
      <g class="st20" data-name="CIRCLE" id="CIRCLE2">
        <path d="M67.39,451.98c0-29.82,24.18-54,54-54s54,24.18,54,54-24.18,54-54,54-54-24.18-54-54h0Z" class="st25"/>
      </g>
      <g class="st20" data-name="LWPOLYLINE" id="LWPOLYLINE29">
        <line y2="545.51" x2="175.39" y1="381.83" x1="80.89" class="st25"/>
      </g>
      <g class="st20" data-name="LWPOLYLINE" id="LWPOLYLINE30">
        <line y2="545.51" x2="67.39" y1="381.83" x1="161.89" class="st25"/>
      </g>
      <g>
        <g data-name="LWPOLYLINE" id="LWPOLYLINE31">
          <polygon points="121.39 451.98 74.62 532.98 85.02 532.98 126.59 460.98 121.39 451.98" class="st6"/>
        </g>
        <g data-name="LWPOLYLINE" id="LWPOLYLINE32">
          <path d="M168.15,478.98c-12.74,22.07-39.19,32.23-63.43,24.36l4.62-8.01c19.77,5.49,40.75-3.09,51.01-20.86l7.79,4.5Z" class="st16"/>
        </g>
        <g data-name="LWPOLYLINE" id="LWPOLYLINE33">
          <path d="M160.36,429.48l7.79-4.5c-14.91-25.83-47.94-34.68-73.77-19.77-25.83,14.91-34.68,47.94-19.77,73.77,4.36,7.55,10.48,13.93,17.84,18.6l4.5-7.8c-5.99-3.87-10.98-9.12-14.55-15.3-12.43-21.52-5.05-49.04,16.47-61.47,21.52-12.43,49.04-5.05,61.47,16.47l7.79-4.5-7.79,4.5Z" class="st16"/>
        </g>
        <g data-name="LWPOLYLINE" id="LWPOLYLINE34">
          <path d="M149.51,500.69c-2.61,1.51-5.34,2.8-8.16,3.87l11.21,19.41h-59.76l-5.2,9h80.54l-18.64-32.29Z" class="st8"/>
        </g>
      </g>
    </g>
  </g>
</svg>